<?xml version="1.0" encoding="UTF-8"?>
<svg width="25px" height="25px" viewBox="0 0 25 25" version="1.1" xmlns="http://www.w3.org/2000/svg" xmlns:xlink="http://www.w3.org/1999/xlink">
    <!-- Generator: Sketch 63.1 (92452) - https://sketch.com -->
    <title>Icon Shape</title>
    <desc>Created with Sketch.</desc>
    <g id="Master" stroke="none" stroke-width="1" fill="none" fill-rule="evenodd">
        <g id="Home" transform="translate(-1314.000000, -21.000000)" fill="#1D1D1D" fill-rule="nonzero">
            <g id="Header" transform="translate(0.000000, -0.000000)">
                <g id="Create-Page-button" transform="translate(1314.000000, 21.000000)">
                    <path d="M21.9117771,0 C21.1135624,0 20.3289121,0.312891114 19.7268599,0.913642053 L9.39076162,11.2119316 L9.16120967,11.4413851 L9.09860459,11.7678348 L8.3786462,15.4182311 L8.05518663,16.9493116 L9.58588078,16.6259908 L13.2378436,15.9063413 L13.5644334,15.843763 L13.7939854,15.6143096 L24.0966943,5.28264497 C24.9790193,4.3976019 25.2425414,3.06912319 24.7648077,1.914525 C24.2870739,0.759926799 23.1617605,0.00560849187 21.9117771,0.00208594076 L21.9117771,0 Z M21.9117771,2.02336254 C22.1569803,2.02336254 22.395923,2.14851898 22.6296487,2.38110138 C23.0950131,2.84626617 23.0950131,3.34897789 22.6296487,3.81518565 L12.5210155,13.9173967 L10.7263366,14.2761786 L11.0863158,12.4822695 L21.194949,2.37797247 C21.4276312,2.14539007 21.6665739,2.02023363 21.9117771,2.02023363 L21.9117771,2.02336254 Z M0,6.14059241 L0,23 C2.09738034e-15,24.1045695 0.8954305,25 2,25 L18.8683592,25 C19.9729287,25 20.8683592,24.1045695 20.8683592,23 L20.8683592,11.2453066 L20.8683592,11.2453066 L17.3611111,14.5833333 L17.3611111,21.5277778 L3.47222222,21.5277778 L3.47222222,7.63888889 L10.4166667,7.63888889 L13.760596,4.14059241 L2,4.14059241 C0.8954305,4.14059241 -1.3527075e-16,5.03602291 0,6.14059241 Z" id="Icon-Shape"></path>
                </g>
            </g>
        </g>
    </g>
</svg>