<?xml version="1.0" encoding="UTF-8"?>
<svg width="25px" height="25px" viewBox="0 0 25 25" version="1.1" xmlns="http://www.w3.org/2000/svg" xmlns:xlink="http://www.w3.org/1999/xlink">
    <!-- Generator: Sketch 63.1 (92452) - https://sketch.com -->
    <title>icons8-settings</title>
    <desc>Created with Sketch.</desc>
    <g id="Master" stroke="none" stroke-width="1" fill="none" fill-rule="evenodd">
        <g id="Home" transform="translate(-1359.000000, -21.000000)" fill="#1D1D1D" fill-rule="nonzero">
            <g id="Header" transform="translate(0.000000, -0.000000)">
                <g id="icons8-settings" transform="translate(1359.000000, 21.000000)">
                    <path d="M9.30640744,-6.76707367e-14 L8.69519682,3.15429687 C7.67595845,3.5422515 6.73351524,4.08425512 5.90594267,4.76806637 L2.89597358,3.7231445 L0,8.7768555 L2.40846035,10.8837887 C2.32306517,11.4112325 2.26778499,11.9482737 2.26778499,12.5 C2.26778499,13.0517262 2.32306517,13.5887675 2.40846035,14.1162112 L0,16.223145 L2.89597358,21.276855 L5.90594267,20.2319337 C6.73351524,20.915745 7.67595845,21.4577487 8.69519682,21.8457025 L9.30640744,25 L15.0983541,25 L15.7095652,21.8457025 C16.7288038,21.4577487 17.6712468,20.915745 18.4988185,20.2319337 L21.5087887,21.276855 L24.4047619,16.223145 L21.9963017,14.1162112 C22.081697,13.5887675 22.1369768,13.0517262 22.1369768,12.5 C22.1369768,11.9482737 22.081697,11.4112325 21.9963017,10.8837887 L24.4047619,8.7768555 L21.5087887,3.7231445 L18.4988185,4.76806637 C17.6712468,4.08425512 16.7288038,3.5422515 15.7095652,3.15429687 L15.0983541,-6.76707367e-14 L9.30640744,-6.76707367e-14 Z M12.2023809,7.5 C14.9455712,7.5 17.1696788,9.73875 17.1696788,12.5 C17.1696788,15.26125 14.9455712,17.5 12.2023809,17.5 C9.4591906,17.5 7.23508294,15.26125 7.23508294,12.5 C7.23508294,9.73875 9.4591906,7.5 12.2023809,7.5 Z" id="Shape"></path>
                </g>
            </g>
        </g>
    </g>
</svg>